# xmcd
#
# Track frame offsets: 
#        150
#        23235
#        43872
#        67484
#        86723
#        103783
#        123235
#        143847
#        158979
#        170296
#        190348
#        210748
#
# Disc length: 3034 seconds
#
# Revision: 2
# Processed by: cddbd v1.4PL0 Copyright (c) Steve Scherf et al.
# Submitted via: ExactAudioCopy v0.90b4
#
DISCID=b10bd80c
DTITLE=Canned Heat - Blues Band
DYEAR=2000
DGENRE=Blues
TTITLE0=Stranger
TTITLE1=Quiet Woman
TTITLE2=Iron Horse
TTITLE3=Jr.'s Shuffle
TTITLE4=Creole Quenn
TTITLE5=Keep It To Yourself
TTITLE6=Boogie Music
TTITLE7=Goin' Up The Country
TTITLE8=See These Tears
TTITLE9=One Kind Favour
TTITLE10=Oh Baby
TTITLE11=Gorgo Boogie
EXTD=
EXTT0=Elmore James\nB. Robinson\n
EXTT1=Robert Lucas\n
EXTT2=Robert Lucas\n
EXTT3=Junior Watson\nde la Parra\n
EXTT4=Robert Lucas\n
EXTT5=Sonny Boy Willianson\n
EXTT6=L. T. Tatman\nCanned Heat\n
EXTT7=Alan Wilson\n
EXTT8=Robert Lucas\n
EXTT9=L. T. Tatman\nCanned Heat\n
EXTT10=Lucas\nde la Parra\n
EXTT11=Lucas\nde la Parra\n
PLAYORDER=
